<?xml version="1.0" encoding="utf-8"?>
<!-- Generator: Adobe Illustrator 28.0.0, SVG Export Plug-In . SVG Version: 6.00 Build 0)  -->
<svg version="1.1" id="Calque_1" xmlns="http://www.w3.org/2000/svg" xmlns:xlink="http://www.w3.org/1999/xlink" x="0px" y="0px"
	 viewBox="0 0 78.52 48.01" style="enable-background:new 0 0 78.52 48.01;" xml:space="preserve">
<style type="text/css">
	.st0{fill:#DBA581;}
</style>
<g>
	<path class="st0" d="M17.82,2.29c2.09-1.36,4.41-2.13,6.9-2.29C24.55,0,24.39,0,24.22,0c-3.27,0-6.4,0.51-9.32,1.53
		c-2.9,1.01-5.5,2.54-7.71,4.54c-2.21,2-3.98,4.53-5.26,7.49C0.65,16.53,0,20.05,0,24.01c0,5.2,1.07,9.64,3.17,13.21
		c2.1,3.56,4.97,6.27,8.55,8.07c3.74,1.88,7.99,2.72,12.65,2.73c-2.49-0.16-4.79-0.92-6.83-2.26c-2.33-1.53-4.18-4.08-5.51-7.6
		c-1.3-3.45-1.96-8.19-1.96-14.08c0-5.94,0.7-10.7,2.08-14.16C13.54,6.41,15.45,3.84,17.82,2.29"/>
	<path class="st0" d="M37.08,38.16c-1.3-3.45-1.96-8.19-1.96-14.08c0-5.94,0.7-10.7,2.08-14.16c1.4-3.51,3.31-6.08,5.68-7.63
		c2.09-1.36,4.41-2.13,6.9-2.29C49.61,0,49.44,0,49.28,0c-3.27,0-6.4,0.51-9.32,1.53c-2.9,1.01-5.5,2.54-7.71,4.54
		c-2.21,2-3.98,4.53-5.26,7.49c-1.28,2.97-1.93,6.48-1.93,10.45c0,5.2,1.07,9.64,3.17,13.2c2.1,3.56,4.97,6.27,8.55,8.07
		c3.74,1.88,7.99,2.71,12.65,2.73c-2.49-0.16-4.79-0.92-6.83-2.26C40.26,44.23,38.41,41.67,37.08,38.16"/>
	<path class="st0" d="M47.43,20.11c-0.07,0.17-0.11,0.28-0.11,0.28L47.43,20.11z"/>
	<path class="st0" d="M63.98,47.47h14.54c-0.7-0.36-1.23-0.76-1.64-1.23c-0.56-0.64-1.04-1.53-1.47-2.71L60.56,0h-5.21l-1.94,5.55
		l-5.99,14.56c0.59-1.4,3.57-7.99,7.86-8.79l6.56,20.19H61.8l3.64,11.15c0.34,1.15,0.38,2.16,0.12,3.01
		C65.33,46.41,64.8,47.01,63.98,47.47"/>
</g>
</svg>
