<?xml version="1.0" encoding="utf-8"?>
<!-- Generator: Adobe Illustrator 28.0.0, SVG Export Plug-In . SVG Version: 6.00 Build 0)  -->
<svg version="1.1" id="Calque_1" xmlns="http://www.w3.org/2000/svg" xmlns:xlink="http://www.w3.org/1999/xlink" x="0px" y="0px"
	 viewBox="0 0 284 126" style="enable-background:new 0 0 284 126;" xml:space="preserve">
<style type="text/css">
	.st0{fill:#B38773;}
	.st1{fill:#DBA581;}
</style>
<g>
	<g>
		<path class="st0" d="M15.63,70.55c0.27,0.08,0.55,0.18,0.82,0.31c0.43,0.19,0.79,0.48,1.08,0.85c0.26,0.34,0.51,0.73,0.74,1.15
			l1.28,2.06l-0.1-3.09c-0.83-0.44-1.72-0.78-2.65-1.04C16.43,70.7,16.04,70.62,15.63,70.55"/>
		<path class="st0" d="M18.1,90.59c-0.25,0.39-0.61,0.68-1.08,0.88c-0.27,0.13-0.54,0.24-0.82,0.32c0.25-0.05,0.5-0.11,0.74-0.17
			c1.01-0.27,1.95-0.62,2.78-1.04l0.07-3.53l-1.09,2.42C18.53,89.87,18.32,90.24,18.1,90.59"/>
		<path class="st0" d="M3.47,76.52C2.9,77.86,2.6,79.44,2.6,81.23c0,2.35,0.48,4.35,1.43,5.96c0.95,1.61,2.24,2.83,3.86,3.64
			c1.69,0.85,3.63,1.24,5.71,1.23c-1.12-0.07-2.16-0.41-3.08-1.02c-1.05-0.69-1.89-1.84-2.48-3.43c-0.59-1.56-0.89-3.69-0.89-6.35
			c0-2.68,0.32-4.83,0.94-6.39c0.63-1.59,1.49-2.74,2.56-3.44c0.94-0.61,1.99-0.96,3.12-1.03c-0.08,0-0.15,0-0.23,0
			c-1.47,0-2.89,0.23-4.21,0.69c-1.31,0.45-2.48,1.14-3.48,2.05C4.85,74.04,4.05,75.18,3.47,76.52"/>
		<path class="st0" d="M29.77,88.95c-0.84-1.07-1.28-2.81-1.3-5.19l0-0.32l0-0.33c0.02-1.75,0.16-3.13,0.41-4.1
			c0.27-1.03,0.64-1.73,1.13-2.16c0.39-0.33,0.84-0.53,1.35-0.61c-1.07,0.08-2.11,0.38-3.1,0.9c-1.15,0.61-2.11,1.52-2.84,2.69
			c-0.73,1.17-1.1,2.62-1.1,4.3c0,1.63,0.32,3.04,0.95,4.2c0.63,1.16,1.52,2.06,2.63,2.68c1.12,0.62,2.43,0.94,3.88,0.94
			c1.47,0,2.74-0.32,3.79-0.95c0.76-0.46,1.42-1.05,1.96-1.77c-0.38,0.32-0.77,0.59-1.18,0.81c-0.71,0.36-1.63,0.55-2.75,0.55
			C31.92,90.6,30.63,90.05,29.77,88.95"/>
		<path class="st0" d="M35.3,77.04c-0.87-0.5-1.94-0.77-3.17-0.81c1.05,0.1,1.8,0.7,2.19,1.74c0.41,1.08,0.5,2.78,0.28,5.18
			l-0.03,0.28h3.52c0.02-0.11,0.04-0.23,0.05-0.36c0.02-0.24,0.03-0.47,0.03-0.69c0-1.18-0.25-2.24-0.75-3.16
			C36.94,78.31,36.22,77.57,35.3,77.04"/>
		<path class="st0" d="M52.17,90.6c-1.77,0-3.11-0.62-3.97-1.86c-0.84-1.19-1.26-2.92-1.26-5.14c0-2.57,0.37-4.4,1.12-5.59
			c0.61-0.97,1.44-1.56,2.46-1.77c-1.33,0.05-2.57,0.36-3.7,0.94c-1.21,0.62-2.2,1.53-2.92,2.7c-0.72,1.17-1.09,2.61-1.09,4.27
			c0,1.69,0.34,3.12,1,4.28c0.66,1.15,1.56,2.03,2.69,2.63c1.14,0.6,2.42,0.91,3.81,0.91c1.45,0,2.72-0.33,3.77-0.98
			c0.8-0.49,1.45-1.15,1.94-1.97c-0.4,0.41-0.82,0.74-1.25,0.99C54.1,90.4,53.22,90.6,52.17,90.6"/>
		<path class="st0" d="M55.68,78.29c-0.41-0.6-1.03-1.1-1.83-1.48c-0.48-0.23-1.04-0.39-1.66-0.48c0.04,0.02,0.07,0.04,0.1,0.06
			c0.26,0.17,0.43,0.47,0.54,0.92c0.05,0.4,0.05,0.77,0.01,1.13c-0.04,0.32-0.05,0.7-0.03,1.15c0.06,0.64,0.26,1.17,0.6,1.57
			c0.32,0.38,0.73,0.56,1.26,0.56c0.5,0,0.89-0.13,1.19-0.41c0.3-0.27,0.44-0.65,0.44-1.15C56.3,79.51,56.09,78.88,55.68,78.29"/>
		<path class="st0" d="M66.56,90.99L66.56,90.99c-0.19-0.31-0.29-0.71-0.29-1.2v-8.98l0.09-4.42l-0.08-0.08l-5.11,1.65
			c0.43,0.11,0.74,0.3,0.93,0.56c0.2,0.28,0.3,0.68,0.3,1.2v10.04c0,0.49-0.1,0.89-0.29,1.2c-0.13,0.21-0.33,0.39-0.59,0.53h5.56
			C66.86,91.35,66.68,91.19,66.56,90.99"/>
		<path class="st0" d="M62.66,73.31c0.44,0.41,0.97,0.61,1.62,0.61c0.65,0,1.17-0.2,1.61-0.6c0.43-0.4,0.63-0.89,0.63-1.51
			c0-0.64-0.21-1.13-0.63-1.52c-0.43-0.4-0.96-0.59-1.61-0.59c-0.65,0-1.18,0.19-1.63,0.59c-0.43,0.39-0.64,0.88-0.64,1.52
			C62.02,72.42,62.23,72.91,62.66,73.31"/>
		<path class="st0" d="M77.86,90.98c-0.2-0.32-0.31-0.73-0.31-1.22c0-0.77-0.01-1.54-0.02-2.32c-0.01-0.78-0.02-1.57-0.02-2.36
			V74.11l0.12-4.33l-0.13-0.09l-5.07,1.19c0.38,0.13,0.67,0.31,0.85,0.55c0.22,0.28,0.32,0.68,0.32,1.18v17.15
			c0,0.79-0.32,1.38-0.95,1.73h5.73C78.17,91.35,77.99,91.18,77.86,90.98"/>
		<path class="st0" d="M88.99,88.95c-0.84-1.07-1.28-2.81-1.3-5.19l-0.01-0.32l0.01-0.33c0.02-1.75,0.16-3.13,0.41-4.1
			c0.27-1.03,0.64-1.73,1.13-2.16c0.39-0.33,0.84-0.53,1.35-0.61c-1.07,0.08-2.11,0.38-3.1,0.9c-1.15,0.61-2.11,1.52-2.84,2.69
			c-0.73,1.17-1.1,2.62-1.1,4.3c0,1.63,0.32,3.04,0.95,4.2c0.63,1.16,1.52,2.06,2.63,2.68c1.12,0.62,2.43,0.94,3.88,0.94
			c1.47,0,2.74-0.32,3.79-0.95c0.76-0.46,1.42-1.05,1.96-1.77c-0.38,0.32-0.77,0.59-1.18,0.81c-0.71,0.36-1.63,0.55-2.75,0.55
			C91.15,90.6,89.86,90.05,88.99,88.95"/>
		<path class="st0" d="M94.52,77.04c-0.87-0.5-1.94-0.77-3.17-0.81c1.05,0.1,1.8,0.7,2.19,1.74c0.41,1.08,0.5,2.78,0.28,5.18
			l-0.03,0.28h3.52c0.02-0.11,0.04-0.23,0.05-0.36c0.02-0.24,0.03-0.47,0.03-0.69c0-1.18-0.25-2.24-0.75-3.16
			C96.17,78.31,95.45,77.57,94.52,77.04"/>
		<path class="st0" d="M124.17,70.55c0.27,0.08,0.55,0.18,0.82,0.31c0.43,0.19,0.79,0.48,1.08,0.85c0.26,0.34,0.51,0.73,0.74,1.15
			l1.29,2.06l-0.1-3.09c-0.83-0.44-1.72-0.78-2.65-1.04C124.97,70.7,124.58,70.62,124.17,70.55"/>
		<path class="st0" d="M112.01,76.52c-0.58,1.34-0.87,2.93-0.87,4.71c0,2.35,0.48,4.35,1.43,5.96c0.95,1.61,2.24,2.83,3.86,3.64
			c1.69,0.85,3.6,1.24,5.71,1.23c-1.12-0.07-2.16-0.41-3.08-1.02c-1.05-0.69-1.89-1.84-2.48-3.43c-0.59-1.56-0.89-3.69-0.89-6.35
			c0-2.68,0.32-4.83,0.94-6.39c0.63-1.59,1.49-2.74,2.56-3.44c0.94-0.61,1.99-0.96,3.12-1.03c-0.08,0-0.15,0-0.23,0
			c-1.47,0-2.89,0.23-4.21,0.69c-1.31,0.45-2.48,1.14-3.48,2.05C113.39,74.04,112.59,75.18,112.01,76.52"/>
		<path class="st0" d="M126.64,90.59c-0.25,0.39-0.61,0.68-1.08,0.88c-0.27,0.13-0.54,0.24-0.82,0.32c0.25-0.05,0.5-0.11,0.74-0.17
			c1.01-0.27,1.95-0.62,2.78-1.04l0.07-3.53l-1.09,2.42C127.07,89.87,126.86,90.24,126.64,90.59"/>
		<path class="st0" d="M147.19,88.27c0.62-1.18,0.94-2.6,0.94-4.22c0-1.62-0.34-3.04-1-4.2c-0.66-1.16-1.57-2.06-2.71-2.68
			c-1.04-0.56-2.22-0.88-3.51-0.93c0.65,0.07,1.19,0.31,1.62,0.71c0.5,0.48,0.86,1.28,1.08,2.45c0.21,1.11,0.31,2.69,0.31,4.71
			c0,2-0.1,3.57-0.31,4.68c-0.22,1.17-0.57,1.97-1.08,2.45c-0.43,0.41-0.97,0.64-1.63,0.71c1.4-0.05,2.63-0.37,3.66-0.96
			C145.68,90.36,146.57,89.44,147.19,88.27"/>
		<path class="st0" d="M137.38,88.79c-0.21-1.11-0.31-2.68-0.31-4.68c0-2.02,0.1-3.6,0.31-4.71c0.22-1.17,0.58-1.98,1.09-2.46
			c0.43-0.4,0.98-0.64,1.63-0.71c-1.29,0.06-2.48,0.37-3.52,0.95c-1.15,0.63-2.07,1.54-2.73,2.7c-0.66,1.16-1,2.57-1,4.17
			c0,1.61,0.32,3.02,0.94,4.21c0.62,1.18,1.51,2.1,2.64,2.73c1.04,0.59,2.28,0.91,3.68,0.96c-0.65-0.07-1.21-0.31-1.64-0.71
			C137.95,90.77,137.59,89.97,137.38,88.79"/>
		<path class="st0" d="M161.65,90.74c-0.5,0.18-1.08,0.27-1.72,0.27c-0.67,0-1.24-0.18-1.7-0.55c-0.47-0.38-0.71-0.98-0.71-1.76
			v-7.73l0.15-4.42l-0.1-0.1l-4.93,0.97c0.31,0.1,0.57,0.27,0.74,0.5c0.22,0.28,0.33,0.69,0.33,1.26l-0.1,8.24
			c-0.02,1.11,0.15,2.02,0.52,2.67c0.36,0.66,0.85,1.12,1.49,1.42c0.65,0.3,1.37,0.45,2.15,0.45c1.06,0,1.98-0.19,2.76-0.56
			c0.46-0.22,0.9-0.47,1.32-0.75C161.79,90.69,161.72,90.71,161.65,90.74"/>
		<path class="st0" d="M163.55,91.79l4.54-0.26c-0.32-0.18-0.53-0.38-0.65-0.63v0c-0.15-0.31-0.23-0.71-0.23-1.24v-8.69l0.09-4.42
			l-0.1-0.1l-4.8,1.04c0.32,0.1,0.56,0.26,0.71,0.48c0.19,0.26,0.29,0.67,0.29,1.23l-0.15,10.64L163.55,91.79z"/>
		<path class="st0" d="M184.68,76.81c-0.36-0.38-0.91-0.57-1.62-0.57c-0.52,0-1.06,0.15-1.59,0.44c-0.56,0.3-1.07,0.7-1.53,1.17
			c-0.37,0.38-0.68,0.8-0.94,1.25c0.09-0.1,0.18-0.2,0.28-0.29c0.3-0.39,0.64-0.49,0.91-0.49c0.04,0,0.08,0,0.12,0.01
			c0.37,0.04,0.7,0.26,0.97,0.63l0.03,0.02c0.65,0.85,1.35,1.25,2.14,1.25c0.49,0,0.91-0.16,1.26-0.5c0.35-0.34,0.53-0.81,0.53-1.45
			C185.23,77.68,185.05,77.2,184.68,76.81"/>
		<path class="st0" d="M178.24,89.6l0-9.01l-0.03,0.07v-1.64l-0.27-2.61l-0.1-0.09l-4.82,1.63c0.47,0.1,0.82,0.3,1.02,0.58
			c0.2,0.28,0.3,0.69,0.3,1.23v10.04c0,0.47-0.1,0.86-0.29,1.17c-0.13,0.21-0.33,0.39-0.59,0.53h6.03
			C178.67,91.21,178.24,90.56,178.24,89.6"/>
		<path class="st0" d="M202.67,96.02c0.63-0.82,0.96-1.73,0.96-2.7c0-0.9-0.22-1.61-0.66-2.11c-0.46-0.52-1.07-0.93-1.83-1.22
			c-0.79-0.3-1.69-0.55-2.67-0.74l-6.03-1.12c-0.81-0.16-1.26-0.69-1.26-1.51v-0.83l-0.86,1.09c-0.31,0.38-0.58,0.75-0.79,1.11
			c-0.19,0.32-0.29,0.67-0.29,1.03c0,0.4,0.13,0.77,0.39,1.12c0.26,0.35,0.7,0.65,1.3,0.88l0.4,0.15l0.02-0.03l0.72,0.18l5.79,1.09
			c1.11,0.2,1.89,0.5,2.38,0.9c0.51,0.43,0.78,1,0.78,1.69c0,1.16-0.5,2.07-1.5,2.71c-0.95,0.61-2.36,0.92-4.19,0.92
			c-1.76,0-3.07-0.35-3.91-1.03c-0.86-0.7-1.29-1.75-1.29-3.11c0-0.51,0.1-1.06,0.31-1.63c0.17-0.48,0.38-0.92,0.63-1.32l-0.09,0.05
			c-0.73,0.45-1.35,1.04-1.84,1.78c-0.48,0.72-0.73,1.44-0.73,2.14c0,0.55,0.18,1.06,0.56,1.57c0.37,0.5,1.04,0.92,1.98,1.25
			c0.96,0.34,2.3,0.51,3.96,0.51c1.94,0,3.57-0.27,4.86-0.79C201.05,97.54,202.03,96.86,202.67,96.02"/>
		<path class="st0" d="M200.38,78.02l-0.26-0.29l-0.01,0l-0.12-0.1c-0.5-0.44-1.14-0.78-1.92-1.02c-0.71-0.22-1.53-0.34-2.45-0.37
			c0.78,0.08,1.37,0.47,1.77,1.15c0.43,0.73,0.64,1.92,0.64,3.64c0,1.72-0.21,2.92-0.63,3.69v0c-0.4,0.72-1.01,1.12-1.82,1.21
			c1.9-0.04,3.35-0.51,4.34-1.37c1.04-0.92,1.54-2.05,1.54-3.46C201.45,79.83,201.1,78.82,200.38,78.02"/>
		<path class="st0" d="M201.34,77.47h2.58v-1.14l-0.11-0.08c-0.47,0.37-0.98,0.67-1.55,0.9C201.97,77.28,201.66,77.38,201.34,77.47"
			/>
		<path class="st0" d="M191.3,85.05l0.08,0.05l0.28,0.13c0.89,0.43,1.97,0.66,3.23,0.7c-0.76-0.09-1.34-0.48-1.72-1.18
			c-0.41-0.74-0.6-1.93-0.6-3.65c0-1.72,0.21-2.92,0.65-3.68c0.41-0.71,1.01-1.11,1.77-1.19c-1.9,0.04-3.36,0.5-4.34,1.36
			c-1.04,0.9-1.54,2.05-1.54,3.5C189.12,82.92,189.83,84.21,191.3,85.05"/>
		<path class="st0" d="M213.35,89.82l0.01-11.06l-0.31-2.35l-0.1-0.1l-4.79,1.63c0.48,0.1,0.82,0.3,1.01,0.59
			c0.19,0.28,0.28,0.68,0.28,1.22v10.04c0,0.79-0.31,1.37-0.89,1.69h5.62C213.63,91.16,213.35,90.59,213.35,89.82"/>
		<path class="st0" d="M223,89.82v-9.24c0-1.48-0.35-2.59-1.04-3.3c-0.69-0.7-1.71-1.06-3.02-1.06c-0.87,0-1.76,0.21-2.65,0.61
			c-0.72,0.33-1.39,0.73-2,1.21c0.87-0.58,1.7-0.87,2.48-0.87c1.56,0,2.38,0.82,2.38,2.38v10.23c0,0.78-0.31,1.36-0.91,1.69h5.66
			C223.31,91.16,223,90.59,223,89.82"/>
		<path class="st0" d="M239.77,77.04c-0.87-0.5-1.94-0.77-3.17-0.81c1.05,0.1,1.8,0.7,2.19,1.74c0.41,1.08,0.5,2.78,0.28,5.18
			l-0.03,0.28h3.52c0.02-0.11,0.04-0.23,0.05-0.36c0.02-0.24,0.03-0.47,0.03-0.69c0-1.18-0.25-2.24-0.75-3.16
			C241.42,78.31,240.7,77.57,239.77,77.04"/>
		<path class="st0" d="M234.24,88.95c-0.84-1.07-1.28-2.81-1.3-5.19l-0.01-0.32l0.01-0.33c0.02-1.75,0.16-3.13,0.41-4.1
			c0.27-1.03,0.64-1.73,1.13-2.16c0.39-0.33,0.84-0.53,1.35-0.61c-1.07,0.08-2.11,0.38-3.1,0.9c-1.15,0.61-2.11,1.52-2.84,2.69
			c-0.73,1.17-1.1,2.62-1.1,4.3c0,1.63,0.32,3.04,0.95,4.2c0.63,1.16,1.52,2.06,2.63,2.68c1.12,0.62,2.43,0.94,3.88,0.94
			c1.47,0,2.74-0.32,3.79-0.95c0.76-0.46,1.42-1.05,1.96-1.77c-0.38,0.32-0.77,0.59-1.18,0.81c-0.71,0.36-1.63,0.55-2.75,0.55
			C236.4,90.6,235.11,90.05,234.24,88.95"/>
		<path class="st0" d="M261.64,90.7c-1.08,0-1.67-0.63-1.67-1.77v-7.09c0-1.99-0.49-3.43-1.45-4.29c-0.97-0.87-2.38-1.31-4.19-1.31
			c-0.18,0-0.34,0.03-0.52,0.03c0.8,0.03,1.41,0.37,1.81,1.03c0.39,0.64,0.57,1.7,0.57,3.23l-0.03,8.74l0.11,0.49
			c0.15,0.66,0.47,1.17,0.96,1.57c0.48,0.39,1.17,0.59,2.02,0.59c0.81,0,1.44-0.13,1.87-0.37c0.35-0.21,0.69-0.48,1-0.83H261.64z"/>
		<path class="st0" d="M254.7,90.32c-0.42,0.23-0.87,0.34-1.36,0.34c-0.67,0-1.25-0.26-1.72-0.76c-0.46-0.5-0.7-1.24-0.7-2.19
			c0-1.11,0.33-2.01,0.97-2.68c0.6-0.62,1.41-1.08,2.39-1.35c-0.31,0.06-0.6,0.11-0.86,0.15c-2.13,0.41-3.72,1.03-4.69,1.84
			c-0.95,0.79-1.42,1.61-1.42,2.52c0,1.23,0.38,2.15,1.15,2.79c0.78,0.65,1.76,0.98,2.92,0.98c0.99,0,1.81-0.22,2.42-0.66
			c0.63-0.45,1.25-1,1.85-1.63C255.3,89.95,254.98,90.16,254.7,90.32"/>
		<path class="st0" d="M253.51,76.29c-0.83,0.06-1.63,0.17-2.35,0.38c-0.95,0.28-1.72,0.71-2.29,1.26
			c-0.55,0.54-0.82,1.19-0.82,1.98c0,0.49,0.15,0.86,0.44,1.14c0.3,0.29,0.68,0.43,1.15,0.43c0.51,0,0.92-0.18,1.27-0.54
			c0.35-0.37,0.54-0.98,0.59-1.81l0.07-0.4c0.09-0.86,0.31-1.49,0.66-1.88C252.55,76.5,252.99,76.33,253.51,76.29"/>
		<path class="st0" d="M274.97,90.74c-0.5,0.18-1.08,0.27-1.72,0.27c-0.67,0-1.24-0.18-1.7-0.55c-0.47-0.38-0.71-0.98-0.71-1.76
			v-7.73l0.15-4.42l-0.1-0.1l-4.93,0.97c0.31,0.1,0.56,0.27,0.74,0.5c0.22,0.28,0.33,0.69,0.33,1.26l-0.1,8.24
			c-0.02,1.11,0.15,2.02,0.52,2.67c0.36,0.66,0.85,1.12,1.49,1.42c0.65,0.3,1.37,0.45,2.15,0.45c1.06,0,1.98-0.19,2.76-0.56
			c0.46-0.22,0.9-0.47,1.32-0.75C275.11,90.69,275.04,90.71,274.97,90.74"/>
		<path class="st0" d="M276.86,91.79l4.54-0.26c-0.31-0.17-0.53-0.38-0.65-0.63c-0.15-0.31-0.23-0.71-0.23-1.24v-8.69l0.09-4.42
			l-0.1-0.1l-4.8,1.04c0.32,0.1,0.56,0.26,0.71,0.48c0.19,0.26,0.29,0.67,0.29,1.23l-0.15,10.64L276.86,91.79z"/>
	</g>
	<path class="st1" d="M69.04,107.73l3.54,9.37h-7.07L69.04,107.73z M68.53,107.36l-5.65,14.98h0.67l1.75-4.65h7.51l1.74,4.65h0.65
		l-5.63-14.98H68.53z"/>
	<g>
		<path class="st1" d="M83.06,115.41h5.07c1.19,0,2.14-0.29,2.84-0.87c0.7-0.58,1.04-1.55,1.04-2.9c0-2.46-1.19-3.7-3.58-3.7h-5.37
			V115.41z M82.41,122.34v-14.98h5.95c1.52,0,2.61,0.38,3.28,1.15c0.67,0.77,1,1.81,1,3.13c0,1.19-0.28,2.16-0.85,2.88
			c-0.57,0.73-1.42,1.18-2.57,1.35c0.39,0.16,0.67,0.36,0.85,0.62c0.18,0.26,0.36,0.59,0.55,1.01l2.07,4.84h-0.65l-2.05-4.7
			c-0.17-0.4-0.36-0.72-0.57-0.97c-0.21-0.24-0.5-0.42-0.88-0.52c-0.38-0.11-0.91-0.16-1.59-0.16h-3.89v6.35H82.41z"/>
		<path class="st1" d="M105.67,122.57c-1.55,0-2.81-0.31-3.78-0.92c-0.97-0.61-1.68-1.46-2.13-2.55c-0.45-1.09-0.67-2.34-0.67-3.77
			c0-1.61,0.21-3.04,0.62-4.27c0.41-1.23,1.1-2.2,2.06-2.9c0.96-0.7,2.26-1.05,3.91-1.05c0.82,0,1.58,0.05,2.29,0.16
			c0.7,0.11,1.34,0.27,1.92,0.49v0.61c-0.57-0.22-1.21-0.39-1.92-0.5c-0.71-0.12-1.45-0.18-2.22-0.18c-1.55,0-2.76,0.33-3.64,0.98
			c-0.88,0.65-1.49,1.55-1.85,2.69c-0.36,1.14-0.53,2.46-0.53,3.97c0,2.06,0.48,3.69,1.43,4.87c0.95,1.19,2.51,1.78,4.66,1.78
			c0.68,0,1.39-0.05,2.12-0.15c0.73-0.1,1.38-0.24,1.95-0.43v0.6c-0.57,0.17-1.21,0.31-1.92,0.41
			C107.26,122.52,106.49,122.57,105.67,122.57"/>
	</g>
	<polygon class="st1" points="127.07,107.36 127.07,114.54 117.74,114.54 117.74,107.36 117.09,107.36 117.09,122.34 117.74,122.34 
		117.74,115.13 127.07,115.13 127.07,122.34 127.72,122.34 127.72,107.36 	"/>
	<rect x="135.4" y="107.36" class="st1" width="0.65" height="14.98"/>
	<polygon class="st1" points="142.79,107.36 142.79,107.94 148.16,107.94 148.16,122.34 148.81,122.34 148.81,107.94 154.16,107.94 
		154.16,107.36 	"/>
	<polygon class="st1" points="160.91,107.36 160.91,122.34 170.4,122.34 170.4,121.75 161.56,121.75 161.56,115.13 169.58,115.13 
		169.58,114.54 161.56,114.54 161.56,107.94 170.4,107.94 170.4,107.36 	"/>
	<g>
		<path class="st1" d="M183.03,122.57c-1.55,0-2.81-0.31-3.78-0.92c-0.97-0.61-1.68-1.46-2.13-2.55c-0.45-1.09-0.67-2.34-0.67-3.77
			c0-1.61,0.21-3.04,0.62-4.27c0.41-1.23,1.1-2.2,2.06-2.9c0.96-0.7,2.26-1.05,3.91-1.05c0.82,0,1.58,0.05,2.29,0.16
			c0.7,0.11,1.34,0.27,1.92,0.49v0.61c-0.57-0.22-1.21-0.39-1.92-0.5c-0.71-0.12-1.45-0.18-2.22-0.18c-1.55,0-2.76,0.33-3.64,0.98
			c-0.88,0.65-1.49,1.55-1.85,2.69s-0.54,2.46-0.54,3.97c0,2.06,0.48,3.69,1.43,4.87c0.95,1.19,2.51,1.78,4.66,1.78
			c0.68,0,1.39-0.05,2.12-0.15c0.73-0.1,1.38-0.24,1.95-0.43v0.6c-0.57,0.17-1.21,0.31-1.92,0.41
			C184.61,122.52,183.85,122.57,183.03,122.57"/>
	</g>
	<polygon class="st1" points="193.51,107.36 193.51,107.94 198.89,107.94 198.89,122.34 199.54,122.34 199.54,107.94 204.89,107.94 
		204.89,107.36 	"/>
	<polygon class="st1" points="211.63,107.36 211.63,122.34 221.12,122.34 221.12,121.75 212.28,121.75 212.28,115.13 220.31,115.13 
		220.31,114.54 212.28,114.54 212.28,107.94 221.12,107.94 221.12,107.36 	"/>
	<g>
		<path class="st1" d="M120.56,5.72c2.09-1.36,4.41-2.13,6.9-2.29c-0.17,0-0.33-0.01-0.5-0.01c-3.27,0-6.4,0.51-9.32,1.53
			c-2.9,1.01-5.5,2.54-7.71,4.54c-2.21,2-3.98,4.53-5.26,7.49c-1.28,2.97-1.93,6.48-1.93,10.44c0,5.2,1.07,9.64,3.17,13.21
			c2.1,3.56,4.97,6.27,8.55,8.07c3.74,1.88,7.99,2.72,12.65,2.73c-2.49-0.16-4.79-0.92-6.83-2.26c-2.33-1.53-4.18-4.08-5.51-7.6
			c-1.3-3.45-1.96-8.19-1.96-14.08c0-5.94,0.7-10.7,2.08-14.16C116.28,9.84,118.19,7.27,120.56,5.72"/>
		<path class="st1" d="M139.82,41.59c-1.3-3.45-1.96-8.19-1.96-14.08c0-5.94,0.7-10.7,2.08-14.16c1.4-3.51,3.31-6.08,5.68-7.63
			c2.09-1.36,4.41-2.13,6.9-2.29c-0.17,0-0.33-0.01-0.5-0.01c-3.27,0-6.4,0.51-9.32,1.53c-2.9,1.01-5.5,2.54-7.71,4.54
			c-2.21,2-3.98,4.53-5.26,7.49c-1.28,2.97-1.93,6.48-1.93,10.45c0,5.2,1.07,9.64,3.17,13.2c2.1,3.56,4.97,6.27,8.55,8.07
			c3.74,1.88,7.99,2.71,12.65,2.73c-2.49-0.16-4.79-0.92-6.83-2.26C143,47.66,141.15,45.1,139.82,41.59"/>
		<path class="st1" d="M150.17,23.54c-0.07,0.17-0.11,0.28-0.11,0.28L150.17,23.54z"/>
		<path class="st1" d="M166.72,50.9h14.54c-0.7-0.36-1.23-0.76-1.64-1.23c-0.56-0.64-1.04-1.53-1.47-2.71L163.3,3.43h-5.21
			l-1.94,5.55l-5.99,14.56c0.59-1.4,3.57-7.99,7.86-8.79l6.56,20.19h-0.04l3.64,11.15c0.34,1.15,0.38,2.16,0.12,3.01
			C168.07,49.84,167.54,50.44,166.72,50.9"/>
	</g>
</g>
</svg>
