<?xml version="1.0" encoding="utf-8"?>
<!-- Generator: Adobe Illustrator 28.0.0, SVG Export Plug-In . SVG Version: 6.00 Build 0)  -->
<svg version="1.1" id="Calque_1" xmlns="http://www.w3.org/2000/svg" xmlns:xlink="http://www.w3.org/1999/xlink" x="0px" y="0px"
	 viewBox="0 0 788 482" style="enable-background:new 0 0 788 482;" xml:space="preserve">
<style type="text/css">
	.st0{fill:#FCF6F3;}
</style>
<g>
	<path class="st0" d="M186.21,30.71c20.27-13.22,42.78-20.68,66.99-22.2c-1.61-0.03-3.24-0.06-4.85-0.06
		c-31.69,0-62.11,4.98-90.46,14.82c-28.19,9.76-53.35,24.6-74.81,44.09c-21.43,19.44-38.58,43.93-51.01,72.73
		C19.63,168.91,13.3,203,13.3,241.45c0,50.48,10.36,93.58,30.75,128.15c20.33,34.53,48.27,60.87,82.95,78.31
		c36.28,18.24,77.56,26.36,122.75,26.51c-24.18-1.56-46.45-8.9-66.29-21.9c-22.6-14.81-40.55-39.62-53.44-73.77
		c-12.63-33.49-19.05-79.44-19.05-136.6c0-57.63,6.77-103.87,20.16-137.42C144.72,70.62,163.25,45.71,186.21,30.71"/>
	<path class="st0" d="M373.19,378.75c-12.64-33.49-19.05-79.44-19.05-136.6c0-57.65,6.77-103.87,20.16-137.43
		c13.59-34.1,32.11-59.02,55.08-74c20.27-13.23,42.78-20.68,66.99-22.2c-1.61-0.04-3.24-0.06-4.85-0.06
		c-31.69,0-62.11,4.98-90.47,14.81c-28.17,9.77-53.34,24.62-74.8,44.09c-21.44,19.46-38.6,43.95-51.02,72.73
		c-12.42,28.82-18.74,62.93-18.74,101.38c0,50.47,10.36,93.58,30.74,128.14c20.35,34.53,48.28,60.89,82.96,78.32
		c36.28,18.22,77.56,26.34,122.75,26.5c-24.18-1.55-46.45-8.88-66.29-21.9C404.03,437.71,386.08,412.89,373.19,378.75"/>
	<path class="st0" d="M473.57,203.63c-0.67,1.61-1.09,2.67-1.09,2.67L473.57,203.63z"/>
	<path class="st0" d="M634.2,469.12h141.1c-6.75-3.49-11.96-7.41-15.9-11.95c-5.4-6.2-10.08-14.82-14.27-26.32L601.02,8.45h-50.57
		l-18.8,53.87l-58.09,141.31c5.71-13.56,34.62-77.57,76.29-85.26l63.62,195.93h-0.38l35.32,108.16c3.33,11.2,3.69,20.96,1.12,29.24
		C647.29,458.85,642.14,464.7,634.2,469.12"/>
</g>
</svg>
